<?xml version="1.0" standalone="no"?>
<!DOCTYPE svg PUBLIC "-//W3C//DTD SVG 20010904//EN"
 "http://www.w3.org/TR/2001/REC-SVG-20010904/DTD/svg10.dtd">
<svg version="1.0" xmlns="http://www.w3.org/2000/svg"
 width="373.000000pt" height="135.000000pt" viewBox="0 0 373.000000 135.000000"
 preserveAspectRatio="xMidYMid meet">

<g transform="translate(0.000000,135.000000) scale(0.100000,-0.100000)"
fill="#000000" stroke="none">
<path d="M0 1199 l0 -151 53 29 c28 16 68 39 87 50 101 60 163 93 171 93 5 0
9 4 9 8 0 5 18 17 40 28 22 10 40 25 40 32 0 7 4 11 9 8 8 -5 101 41 101 50 0
2 -115 4 -255 4 l-255 0 0 -151z"/>
<path d="M643 1175 c-155 -43 -277 -155 -320 -292 -10 -31 -22 -53 -31 -53
-10 0 -12 7 -8 25 7 29 -1 31 -30 7 -29 -23 -44 -54 -44 -90 0 -38 10 -46 27
-22 8 11 25 20 37 20 22 0 24 -5 28 -75 4 -60 12 -90 42 -150 121 -245 408
-327 647 -185 120 71 198 185 222 326 11 63 2 138 -29 241 -5 18 -1 23 21 29
20 5 30 2 37 -10 16 -28 27 -17 25 25 -2 49 -29 74 -71 63 -30 -7 -33 -19 -9
-32 14 -8 13 -11 -7 -17 -18 -6 -28 -1 -49 26 -46 60 -95 99 -169 136 -65 33
-81 36 -170 39 -65 3 -114 -1 -149 -11z m248 -107 c19 -6 37 -15 40 -20 5 -8
25 -15 52 -17 4 -1 12 -12 17 -26 5 -14 21 -30 34 -37 21 -9 23 -14 15 -30 -6
-11 -17 -17 -25 -14 -8 3 -12 2 -9 -4 7 -11 -150 -62 -264 -85 -95 -19 -287
-25 -314 -9 -17 10 -17 11 0 35 27 35 44 79 37 91 -4 7 -2 8 5 4 7 -5 33 12
66 43 30 28 60 51 68 51 8 0 28 7 43 15 35 18 185 20 235 3z m134 -271 c-13
-36 -27 -50 -63 -70 -92 -50 -179 -71 -287 -72 l-100 0 -48 40 -48 40 113 7
c62 3 145 13 185 22 67 15 241 70 251 81 14 14 12 -8 -3 -48z m85 23 c-11 -7
-11 -10 -2 -10 7 0 11 -4 8 -9 -4 -5 -2 -11 4 -13 14 -4 15 -105 2 -121 -6 -7
-14 -32 -18 -55 -3 -23 -10 -39 -15 -36 -5 3 -9 -4 -9 -14 0 -11 -7 -22 -15
-26 -8 -3 -15 -11 -15 -19 0 -15 -46 -58 -53 -50 -3 2 -10 -4 -16 -15 -11 -20
-51 -37 -51 -22 0 17 45 56 61 53 9 -2 22 4 29 14 12 15 12 16 0 6 -22 -20
-32 -15 -20 8 7 11 10 23 7 25 -2 2 -37 -7 -78 -21 -41 -14 -109 -29 -151 -32
-43 -3 -78 -10 -78 -15 0 -5 -4 -6 -10 -3 -5 3 -10 2 -10 -4 0 -30 142 -50
180 -26 9 5 11 4 6 -3 -4 -7 -3 -12 3 -12 5 0 11 5 13 12 2 6 13 13 24 14 14
2 19 -3 19 -22 0 -21 -4 -25 -22 -21 -19 4 -21 2 -12 -17 l10 -21 -18 21 c-16
17 -21 19 -31 7 -18 -19 -151 -21 -162 -2 -3 5 -16 7 -28 4 -13 -2 -20 0 -17
6 4 5 11 6 17 3 6 -4 8 -2 5 3 -4 6 -17 8 -31 6 -13 -3 -35 2 -48 11 -14 9
-28 13 -33 9 -4 -5 -5 -3 -2 4 6 10 -59 87 -75 88 -12 0 -18 11 -24 51 -3 21
-12 46 -19 54 -15 18 -27 88 -16 95 12 7 72 -43 112 -93 49 -63 69 -82 109
-99 95 -40 290 -1 352 71 30 34 66 109 73 152 10 53 22 74 43 74 15 0 15 -2 2
-10z"/>
<path d="M1336 983 c-4 -43 -9 -99 -13 -125 l-6 -48 102 0 c56 0 110 4 120 10
26 14 51 82 51 141 0 40 -5 55 -25 74 -22 23 -31 25 -123 25 l-99 0 -7 -77z
m182 -39 c4 -55 -15 -74 -74 -74 l-44 0 0 44 c0 71 5 77 64 74 l51 -3 3 -41z"/>
<path d="M1627 1053 c-2 -5 -7 -42 -11 -83 -4 -41 -9 -94 -12 -117 l-6 -43 40
0 c38 0 40 1 45 38 3 20 9 76 13 125 l7 87 -36 0 c-20 0 -38 -3 -40 -7z"/>
<path d="M1762 935 c51 -127 65 -144 107 -130 15 4 99 136 158 248 2 4 -16 7
-41 7 l-44 0 -40 -71 -39 -71 -28 71 -28 71 -48 0 -47 0 50 -125z"/>
<path d="M2044 993 c-19 -181 -18 -183 126 -183 l107 0 7 58 c3 31 9 87 12
125 l7 67 -36 0 c-35 0 -36 -1 -41 -45 -3 -25 -9 -65 -12 -90 l-5 -45 -51 0
-51 0 7 90 8 90 -35 0 -35 0 -8 -67z"/>
<path d="M2327 1053 c-3 -5 -8 -53 -12 -108 -10 -133 -5 -138 141 -143 l104
-4 0 25 c0 14 3 32 6 41 5 13 -8 16 -83 18 l-88 3 3 65 c1 36 5 75 7 88 5 20
2 22 -34 22 -22 0 -42 -3 -44 -7z"/>
<path d="M2637 1040 c-55 -44 -64 -188 -13 -222 6 -4 56 -8 112 -8 l101 0 7
53 c10 87 10 87 -29 87 -28 0 -35 -4 -35 -19 0 -42 -11 -51 -60 -51 -48 0 -65
13 -56 43 3 6 7 24 10 39 6 27 8 27 94 30 l87 3 3 33 3 32 -99 0 c-85 0 -103
-3 -125 -20z"/>
<path d="M2919 1047 c-25 -19 -37 -48 -43 -112 -4 -33 -9 -75 -12 -92 -5 -33
-4 -33 36 -33 39 0 40 1 40 35 l0 35 56 0 56 0 -6 -35 c-7 -35 -6 -35 28 -35
19 0 37 3 39 8 3 4 8 50 12 103 7 90 6 98 -14 118 -18 18 -33 21 -98 21 -46
-1 -85 -6 -94 -13z m139 -74 c3 -22 0 -23 -52 -23 -39 0 -56 4 -56 13 0 25 25
38 65 35 33 -2 41 -7 43 -25z"/>
<path d="M1276 975 c4 -8 8 -15 10 -15 2 0 4 7 4 15 0 8 -4 15 -10 15 -5 0 -7
-7 -4 -15z"/>
<path d="M2711 770 l-23 -20 30 0 c16 0 40 9 53 20 l24 19 -30 0 c-16 0 -41
-9 -54 -19z"/>
<path d="M1359 711 c-21 -21 -29 -39 -29 -64 0 -50 23 -65 105 -69 102 -4 86
-22 -22 -26 l-93 -3 0 -34 0 -35 84 0 c128 0 166 22 166 99 0 44 -32 65 -105
69 -89 6 -71 22 24 22 73 0 79 2 85 23 12 46 11 47 -90 47 -92 0 -97 -1 -125
-29z"/>
<path d="M1633 725 c-28 -20 -46 -77 -46 -147 0 -87 14 -98 125 -98 74 0 91 3
107 19 50 50 55 201 7 233 -21 15 -170 9 -193 -7z m147 -104 c0 -59 -14 -73
-72 -69 -42 3 -43 4 -46 40 -5 60 10 78 68 78 l50 0 0 -49z"/>
<path d="M1884 673 c-20 -184 -17 -188 134 -188 l107 0 3 38 3 37 -87 0 -87 0
7 90 7 90 -40 0 -39 0 -8 -67z"/>
<path d="M2176 728 c-5 -14 -26 -209 -26 -233 0 -11 11 -15 39 -15 l38 0 6 53
c3 28 9 87 13 130 l7 77 -37 0 c-21 0 -38 -5 -40 -12z"/>
<path d="M2277 703 c-4 -21 -9 -80 -13 -130 l-7 -93 92 0 c128 0 152 15 171
107 15 68 0 125 -35 141 -14 7 -66 12 -114 12 l-88 0 -6 -37z m178 -54 c8 -23
-1 -67 -17 -86 -6 -7 -33 -13 -60 -13 l-50 0 6 31 c3 17 6 44 6 60 0 28 1 29
54 29 47 0 56 -3 61 -21z"/>
<path d="M2584 717 c-24 -21 -29 -35 -38 -119 -7 -53 -10 -101 -8 -107 2 -6
19 -11 38 -11 29 0 34 3 34 24 0 48 9 56 62 56 l50 0 -4 -37 c-3 -37 -2 -38
33 -41 l36 -3 6 68 c4 37 7 89 7 115 0 64 -21 78 -117 78 -61 0 -76 -4 -99
-23z m144 -64 c3 -22 0 -23 -52 -23 -49 0 -55 2 -49 18 10 26 24 33 63 30 28
-2 36 -8 38 -25z"/>
<path d="M2822 626 c-17 -156 -18 -146 27 -146 38 0 39 1 46 40 6 35 10 40 34
40 23 0 31 -7 46 -40 17 -38 20 -40 62 -40 23 0 43 2 43 5 0 3 -7 21 -15 41
-13 32 -13 37 5 67 20 32 25 72 14 102 -12 31 -59 45 -157 45 l-93 0 -12 -114z
m193 35 c8 -14 -4 -19 -55 -22 -36 -3 -45 0 -48 14 -3 14 5 17 47 17 27 0 52
-4 56 -9z"/>
<path d="M3117 688 c-3 -29 -9 -88 -13 -130 l-7 -78 40 0 40 0 6 48 c4 26 10
84 13 130 l7 82 -40 0 -40 0 -6 -52z"/>
<path d="M3252 717 c-52 -56 -57 -197 -8 -229 16 -11 174 -10 195 2 28 15 46
69 46 141 0 98 -13 109 -125 109 -78 0 -89 -2 -108 -23z m156 -78 c2 -14 -2
-37 -7 -52 -10 -24 -15 -27 -61 -27 l-50 0 0 36 c0 60 14 75 68 72 42 -3 47
-6 50 -29z"/>
<path d="M3700 193 c-15 -5 -91 -53 -100 -64 -3 -3 -21 -11 -40 -19 -19 -8
-39 -20 -43 -27 -4 -7 -17 -13 -27 -13 -11 0 -20 -4 -20 -9 0 -5 -20 -18 -45
-30 -25 -12 -45 -23 -45 -26 0 -3 79 -5 175 -5 l175 0 0 100 c0 55 -3 100 -7
99 -5 0 -15 -3 -23 -6z"/>
</g>
</svg>
